# xmcd CD database file
#
# Track frame offsets:
#	150
#	15597
#	30041
#	51244
#	66429
#	91459
#	112099
#	129551
#	149545
#	168509
#	189943
#	210929
#	231851
#	248657
#	264381
#
# Disc length: 3800 seconds
#
# Revision: 0
# Processed by: cddbd v1.5.1PL0 Copyright (c) Steve Scherf et al.
# Submitted via: CDex 1.51
#
DISCID=ca0ed60f
DTITLE=Varios Artistas - Salsa Clasica
DYEAR=1900
DGENRE=Salsa
TTITLE0=Vuelve Cuco Valoy
TTITLE1=El Carretero Guillermo Portabales
TTITLE2=Buscandote The Latin Brothers
TTITLE3=Milonga Para Una Niña Andy Montañez
TTITLE4=La Murga Willie Colon Y Hector Lavoe
TTITLE5=Pegaso The Latin Brothers
TTITLE6=Me Voy Pa' Cali Oscar D' Leon
TTITLE7=Si Preguntan Por Mi Carlos El Grande
TTITLE8=Siempre Alegre Raphy Leavitt
TTITLE9=Sin Rumbo Alguno Conjunto Clasico
TTITLE10=Detalles Oscar D' Leon
TTITLE11=Talento De T.V Willie Colon
TTITLE12=El Adios Raphy Leavitt
TTITLE13=Che Che Cole Willie Colon
TTITLE14=La Vida Es Un Carnaval Celia Cruz
EXTD=
EXTT0=
EXTT1=
EXTT2=
EXTT3=
EXTT4=
EXTT5=
EXTT6=
EXTT7=
EXTT8=
EXTT9=
EXTT10=
EXTT11=
EXTT12=
EXTT13=
EXTT14=
PLAYORDER=
